<svg width="268" height="268" viewBox="0 0 268 268" fill="none" xmlns="http://www.w3.org/2000/svg">
<rect width="268" height="268" fill="#D9D9D9"/>
<path d="M110.705 100.009C98.4736 105.429 88.7324 115.155 83.2979 127.387C82.4775 129.232 83.3125 131.386 85.1582 132.206C85.6416 132.426 86.1396 132.528 86.6377 132.528C88.0439 132.528 89.377 131.723 89.9775 130.36C94.6797 119.784 103.088 111.376 113.664 106.688C115.51 105.868 116.345 103.715 115.524 101.869C114.719 100.023 112.551 99.1885 110.705 100.009ZM142.141 84.1152C143.195 82.3867 143.84 80.3799 143.84 78.2119C143.84 71.9424 138.757 66.874 132.502 66.874C126.232 66.874 121.164 71.957 121.164 78.2119C121.164 80.3799 121.809 82.4014 122.863 84.1152C91.1201 88.7881 66.6865 116.195 66.6865 149.213V157.138C66.6865 159.159 68.3271 160.8 70.3486 160.8H194.67C196.691 160.8 198.332 159.159 198.332 157.138V149.213C198.317 116.195 173.869 88.8027 142.141 84.1152ZM191.008 153.476H73.9961V149.213C73.9961 116.957 100.246 90.7217 132.502 90.7217C164.758 90.7217 191.008 116.957 191.008 149.213V153.476ZM194.655 168.153H70.334C68.3125 168.153 66.6719 169.794 66.6719 171.815C66.6719 173.837 68.3125 175.478 70.334 175.478H194.655C196.677 175.478 198.317 173.837 198.317 171.815C198.317 169.794 196.677 168.153 194.655 168.153Z" fill="#292929" fill-opacity="0.15"/>
</svg>
