<svg width="24" height="21" viewBox="0 0 24 21" fill="none" xmlns="http://www.w3.org/2000/svg">
<path fill-rule="evenodd" clip-rule="evenodd" d="M4.88301 2.10968C3.03111 2.95619 1.67442 4.96963 1.67442 7.3706C1.67442 9.8235 2.6782 11.7141 4.11716 13.3345C5.30313 14.6699 6.7388 15.7767 8.13894 16.8562C8.47149 17.1126 8.80203 17.3674 9.12675 17.6234C9.71395 18.0863 10.2377 18.4925 10.7426 18.7876C11.2477 19.0828 11.6544 19.2176 12 19.2176C12.3456 19.2176 12.7523 19.0828 13.2574 18.7876C13.7623 18.4925 14.286 18.0863 14.8733 17.6234C15.198 17.3674 15.5286 17.1126 15.8611 16.8562C17.2612 15.7767 18.6969 14.6699 19.8828 13.3345C21.3218 11.7141 22.3256 9.8235 22.3256 7.3706C22.3256 4.96963 20.9689 2.95619 19.117 2.10968C17.3178 1.28731 14.9004 1.50509 12.6032 3.89188C12.4454 4.05585 12.2276 4.1485 12 4.1485C11.7724 4.1485 11.5546 4.05585 11.3968 3.89188C9.09953 1.50509 6.68213 1.28731 4.88301 2.10968ZM12 2.14834C9.41911 -0.160776 6.52907 -0.483794 4.1869 0.586819C1.71316 1.71756 0 4.34318 0 7.3706C0 10.346 1.23963 12.616 2.86518 14.4464C4.16692 15.9121 5.76025 17.139 7.16744 18.2225C7.48643 18.4681 7.79585 18.7064 8.09014 18.9384C8.66194 19.3891 9.27577 19.8698 9.89782 20.2333C10.5197 20.5966 11.2293 20.892 12 20.892C12.7707 20.892 13.4803 20.5966 14.1022 20.2333C14.7243 19.8698 15.338 19.3891 15.9099 18.9384C16.2041 18.7064 16.5136 18.4681 16.8326 18.2225C18.2398 17.139 19.833 15.9121 21.1348 14.4464C22.7604 12.616 24 10.346 24 7.3706C24 4.34318 22.2868 1.71756 19.8131 0.586819C17.4709 -0.483794 14.5809 -0.160776 12 2.14834Z" fill="#FF4242"/>
</svg>
