<svg width="60" height="61" viewBox="0 0 60 61" fill="none" xmlns="http://www.w3.org/2000/svg">
<rect x="0.5" y="0.5" width="59" height="58.8291" rx="9.5" fill="white" fill-opacity="0.95" stroke="white"/>
<path d="M43.2411 24.315H37.2646C37.0941 23.3349 36.7798 22.4666 36.3217 21.7102C35.8636 20.9432 35.2937 20.2933 34.6119 19.7607C33.93 19.228 33.1523 18.8285 32.2788 18.5621C31.4158 18.2852 30.4837 18.1467 29.4822 18.1467C27.7031 18.1467 26.1264 18.5941 24.7521 19.489C23.3778 20.3732 22.3018 21.6729 21.5241 23.3881C20.7464 25.0927 20.3576 27.1754 20.3576 29.6364C20.3576 32.1399 20.7464 34.2493 21.5241 35.9645C22.3125 37.669 23.3885 38.9581 24.7521 39.8317C26.1264 40.6946 27.6978 41.1261 29.4663 41.1261C30.4464 41.1261 31.3626 40.9982 32.2148 40.7425C33.0778 40.4762 33.8501 40.0874 34.532 39.576C35.2244 39.0646 35.805 38.4361 36.2738 37.6903C36.7532 36.9446 37.0835 36.0923 37.2646 35.1335L43.2411 35.1655C43.0174 36.7209 42.5327 38.1804 41.7869 39.544C41.0518 40.9077 40.0877 42.1115 38.8945 43.1555C37.7014 44.1889 36.3058 44.9986 34.7077 45.5845C33.1097 46.1598 31.3359 46.4474 29.3864 46.4474C26.5099 46.4474 23.9425 45.7816 21.6839 44.4499C19.4254 43.1183 17.6463 41.1953 16.3466 38.6811C15.0469 36.1669 14.397 33.152 14.397 29.6364C14.397 26.1101 15.0522 23.0952 16.3626 20.5916C17.6729 18.0774 19.4574 16.1545 21.7159 14.8228C23.9744 13.4911 26.5313 12.8253 29.3864 12.8253C31.2081 12.8253 32.902 13.081 34.468 13.5923C36.0341 14.1037 37.4297 14.8548 38.6548 15.8455C39.88 16.8256 40.8867 18.0295 41.6751 19.457C42.4741 20.8739 42.9961 22.4933 43.2411 24.315Z" fill="#E6B8BD"/>
</svg>
